<svg width="12" height="13" viewBox="0 0 12 13" fill="none" xmlns="http://www.w3.org/2000/svg">
<path d="M9.23443 11.9191C9.1555 11.9195 9.07848 11.8948 9.01435 11.8488L6.00005 9.66352L2.98576 11.8488C2.92136 11.8955 2.84377 11.9206 2.76422 11.9203C2.68467 11.92 2.60727 11.8944 2.54321 11.8472C2.47915 11.8 2.43176 11.7337 2.40788 11.6578C2.384 11.582 2.38487 11.5004 2.41036 11.4251L3.58599 7.94298L0.539115 5.85352C0.473117 5.80831 0.423306 5.74318 0.39696 5.66765C0.370613 5.59212 0.369111 5.51014 0.392674 5.43369C0.416236 5.35724 0.463628 5.29033 0.527926 5.24274C0.592223 5.19514 0.670056 5.16936 0.750052 5.16915H4.50896L5.64333 1.67813C5.66777 1.60276 5.71545 1.53707 5.77954 1.49048C5.84362 1.44388 5.92082 1.41879 6.00005 1.41879C6.07928 1.41879 6.15648 1.44388 6.22057 1.49048C6.28465 1.53707 6.33233 1.60276 6.35677 1.67813L7.49115 5.17032H11.2501C11.3301 5.17028 11.4082 5.19589 11.4726 5.24339C11.5371 5.29089 11.5847 5.3578 11.6084 5.4343C11.6321 5.51081 11.6307 5.5929 11.6044 5.66855C11.5781 5.74419 11.5282 5.80943 11.4622 5.85469L8.41411 7.94298L9.58904 11.4241C9.60807 11.4805 9.61343 11.5406 9.60466 11.5994C9.59589 11.6583 9.57325 11.7142 9.5386 11.7625C9.50396 11.8109 9.45831 11.8503 9.40542 11.8776C9.35253 11.9048 9.29392 11.919 9.23443 11.9191Z" fill="#FF859B"/>
</svg>
