<svg width="12" height="11" viewBox="0 0 12 11" fill="none" xmlns="http://www.w3.org/2000/svg">
<path fill-rule="evenodd" clip-rule="evenodd" d="M5.99997 0.418976C6.16242 0.418976 6.30639 0.523573 6.3566 0.678069L7.49115 4.16898H11.25C11.4143 4.16898 11.5595 4.27599 11.6082 4.43296C11.6568 4.58994 11.5976 4.76031 11.462 4.85325L8.41474 6.94283L9.58965 10.4241C9.64183 10.5786 9.58806 10.7492 9.45667 10.846C9.32527 10.9427 9.14642 10.9434 9.0143 10.8476L5.99997 8.66333L2.98563 10.8476C2.85352 10.9434 2.67466 10.9427 2.54327 10.846C2.41188 10.7492 2.35811 10.5786 2.41028 10.4241L3.5852 6.94283L0.537894 4.85325C0.402354 4.76031 0.343124 4.58994 0.391775 4.43296C0.440427 4.27599 0.585622 4.16898 0.749967 4.16898H4.50878L5.64333 0.678069C5.69354 0.523573 5.83752 0.418976 5.99997 0.418976ZM5.99997 2.00723L5.13785 4.65988C5.08764 4.81438 4.94367 4.91898 4.78122 4.91898H1.95994L4.24329 6.4847C4.38169 6.5796 4.44019 6.7549 4.38653 6.91389L3.4964 9.5513L5.77993 7.89657C5.9112 7.80144 6.08873 7.80144 6.22001 7.89657L8.50353 9.5513L7.61341 6.91389C7.55975 6.7549 7.61825 6.5796 7.75664 6.4847L10.04 4.91898H7.21872C7.05627 4.91898 6.91229 4.81438 6.86208 4.65988L5.99997 2.00723Z" fill="#FF859B"/>
</svg>
